<?xml version="1.0" encoding="UTF-8"?>
<svg xmlns="http://www.w3.org/2000/svg" viewBox="25 25 1000 450">
  <path
    d="M594.48,101.73c0.00,0.00-68.72,84.61-65.20,90.01c4.88-5.39-24.67-90.93-24.67-90.93s-6.17-17.98-25.51-76.94H409.05H239.06H110.88l-12.80,55.34h96.50h22.89c62.07,0.00,99.98,25.66,89.39,71.13c-11.43,49.50-65.61,70.64-123.32,70.64H161.95l27.76-121.04H93.23l-40.96,176.84h136.99c103.06,0.00,200.83-55.34,218.46-126.44c3.08-13.07,2.65-45.93-5.27-65.27c0.00-0.46-0.45-1.35-0.89-2.69c-0.43-0.46-0.89-3.61,0.89-4.07c0.86-0.46,2.63,1.35,2.63,1.79c0.00,0.00,0.90,2.28,1.75,4.06l87.20,251.57l222.02-256.08l93.80-0.46h22.89c62.12,0.00,100.45,25.66,89.84,71.13c-11.45,49.50-66.03,70.64-123.75,70.64h-22.03L805.00,99.93h-96.44l-40.99,176.84h136.99c103.06,0.00,201.72-55.34,218.02-126.44c16.73-71.13-55.51-126.47-159.45-126.47h-90.72h-113.64C604.62,89.12,594.48,101.73,594.48,101.73L594.48,101.73z" />
  <path
    d="M497.12,336.64C236.41,336.64,25.00,367.25,25.00,405.06c0.00,37.79,211.41,68.39,472.12,68.39c261.19,0.00,472.62-30.60,472.62-68.39C969.75,367.25,758.32,336.64,497.12,336.64z M480.39,429.37c-59.90,0.00-107.90-10.36-107.90-22.97c0.00-12.62,48.00-22.95,107.90-22.95c59.44,0.00,107.49,10.33,107.49,22.95C587.88,419.00,539.83,429.37,480.39,429.37z" />
</svg>